<svg xmlns="http://www.w3.org/2000/svg" version="1.1" width="512" height="512" x="0" y="0"
    viewBox="0 0 512 512" style="enable-background:new 0 0 512 512" xml:space="preserve" class="">
  <g>
    <path fill="#FF4081"
        d="m306.394 190.462-7.441 2.938 7.441-2.938c-6.697-16.959-12.48-31.605-16.695-45.732a8 8 0 0 0-13.95-2.665c-6.223 7.896-13.909 15.62-24.186 24.307a7.998 7.998 0 0 0-2.378 8.776c3.81 10.778 8.062 21.545 12.563 32.944C281.909 259.146 307 322.683 307 429c0 14.598-3.817 32-22 32-8.914 0-24-5.265-24-25 0-13.234-10.767-24-24-24s-24 10.766-24 24c0 47.416 37.096 73 72 73 18.554 0 35.695-7.005 48.264-19.726C347.483 474.882 355 454.04 355 429c0-115.452-26.951-183.699-48.606-238.538z"
        opacity="1" class="" />
      <path fill="#FF4081"
          d="M290.151 56.929c-6.088-5.768-11.272-13.205-16.761-21.079-.931-1.335-1.863-2.673-2.803-4.006a8 8 0 0 0-6.267-3.387 7.966 7.966 0 0 0-6.483 2.953C247.419 44.241 235 67.251 235 104c0 27.336 7.17 51.306 14.185 71.148a7.998 7.998 0 0 0 12.707 3.443c11.121-9.399 19.518-17.859 26.424-26.622a8 8 0 0 0 1.383-7.239C285.128 129.412 283 116.47 283 104c0-15.109 2.871-27.621 8.534-37.189a7.999 7.999 0 0 0-1.383-9.882z"
          opacity="1" class="" />
      <path fill="#FF80AB"
          d="M384.238 240.509C366.522 219.545 341.716 208 314.391 208c-23.769 0-45.824 7.782-62.104 21.914-18.658 16.196-28.52 39.048-28.52 66.086 0 13.234 10.767 24 24 24s24-10.766 24-24c0-38.071 35.505-40 42.623-40 29.76 0 45.61 27.876 45.61 48 0 40.12-25.134 63.13-68.957 63.13-13.291 0-35.277-4.516-53.504-17.243C217.275 335.738 207 314.917 207 288c0-22.625 10.566-46.703 32.303-73.608 20.261-25.08 46.777-48.071 68.086-66.548 18.188-15.77 32.554-28.226 40.938-39.614 25.872-35.142 18.798-62.022 12.279-74.917C351.44 15.182 332.169 3 312.652 3c-18.609 0-38.201 9.559-52.409 25.572a85.073 85.073 0 0 0-2.406 2.839 8 8 0 0 0-.328 9.65A904.114 904.114 0 0 1 260.265 45c5.707 8.187 11.607 16.652 18.883 23.544a8.002 8.002 0 0 0 12.386-1.733c1.396-2.358 2.948-4.506 4.614-6.383C302.765 52.971 309.837 51 312.65 51c.893.015 3.728 1.217 5.119 3.969 2.591 5.125-.436 14.396-8.097 24.802-5.214 7.082-19.064 19.091-33.729 31.807-22.74 19.717-51.04 44.255-73.979 72.65C173.054 220.014 159 253.958 159 288c0 54.212 27.766 84.979 51.059 101.243 27.335 19.087 59.757 25.888 80.984 25.888 34.56 0 63.883-10.464 84.798-30.262C396.88 364.956 408 336.992 408 304c0-22.481-8.661-45.623-23.762-63.491z"
          opacity="1" class="" />
      <path fill="#FF4081"
          d="M252.288 229.914c-15.638 13.575-25.093 31.828-27.745 53.3 1.399 13.061 5.528 24.477 12.346 34.168a23.84 23.84 0 0 0 10.88 2.618c10.349 0 19.189-6.585 22.551-15.786a23.96 23.96 0 0 1-5.551.655c-13.233 0-24-10.766-24-24 0-22.41 6.781-41.939 19.722-57.191-2.865 1.921-5.615 3.989-8.203 6.236z"
          opacity="1" class="" />
      <path fill="#FF4081"
          d="M329.675 128.125a7262.058 7262.058 0 0 1-5.285 4.588c-8.068 6.996-16.883 14.641-25.821 22.799a3566.55 3566.55 0 0 1 8.821-7.668c8.295-7.194 15.784-13.692 22.285-19.719z"
          opacity="1" class="" />
      <path fill="#FF4081"
          d="M308.043 400c-21.227 0-53.649-6.801-80.984-25.888C203.766 357.849 176 327.082 176 272.87c0-34.042 14.054-67.986 42.965-103.772 14.607-18.081 31.385-34.591 47.52-49.295-20.804 18.172-44.667 39.851-64.52 64.426C173.054 220.014 159 253.958 159 288c0 54.212 27.766 84.979 51.059 101.243 27.335 19.087 59.757 25.888 80.984 25.888 34.56 0 63.883-10.464 84.798-30.262a98.393 98.393 0 0 0 5.817-5.997C361.972 392.735 336.827 400 308.043 400z"
          opacity="1" class="" />
      <g fill="#f79235">
      <path
          d="M508.485 65.375a8.003 8.003 0 0 0-7.456-.803l-80 32A8.001 8.001 0 0 0 416 104v59.123c-4.682-1.989-10.13-3.123-16-3.123-17.944 0-32 10.542-32 24s14.056 24 32 24 32-10.542 32-24v-74.584l64-25.6v47.307c-4.682-1.989-10.13-3.123-16-3.123-17.944 0-32 10.542-32 24s14.056 24 32 24 32-10.542 32-24V72a8.002 8.002 0 0 0-3.515-6.625zM140.485 337.375a8 8 0 0 0-7.456-.803l-80 32A8.001 8.001 0 0 0 48 376v59.123C43.318 433.134 37.87 432 32 432c-17.944 0-32 10.542-32 24s14.056 24 32 24 32-10.542 32-24v-74.584l64-25.6v47.307c-4.682-1.989-10.13-3.123-16-3.123-17.944 0-32 10.542-32 24s14.056 24 32 24 32-10.542 32-24v-80a8.002 8.002 0 0 0-3.515-6.625zM172.485 49.375a8 8 0 0 0-7.456-.803l-80 32A8.001 8.001 0 0 0 80 88v59.123C75.318 145.134 69.87 144 64 144c-17.944 0-32 10.542-32 24s14.056 24 32 24 32-10.542 32-24V93.416l64-25.6v47.307c-4.682-1.989-10.13-3.123-16-3.123-17.944 0-32 10.542-32 24s14.056 24 32 24 32-10.542 32-24V56a8.002 8.002 0 0 0-3.515-6.625z"
          fill="#FF4081" opacity="1" class="" />
    </g>
  </g>
</svg>